<?xml version="1.0" encoding="UTF-8"?>
<svg xmlns="http://www.w3.org/2000/svg" width="750" height="1000" viewBox="0 0 750 1000" role="img" aria-label="FOTO-02">
  <rect width="750" height="1000" fill="#f2f2f2"/>
  <rect x="24" y="24" width="702" height="952" fill="none" stroke="#000000" stroke-opacity="0.25" stroke-width="1"/>
  <line x1="0" y1="8" x2="750" y2="8" stroke="#000000" stroke-opacity="0.05" stroke-width="2"/><line x1="0" y1="64" x2="750" y2="64" stroke="#000000" stroke-opacity="0.05" stroke-width="2"/><line x1="0" y1="119" x2="750" y2="119" stroke="#000000" stroke-opacity="0.05" stroke-width="2"/><line x1="0" y1="175" x2="750" y2="175" stroke="#000000" stroke-opacity="0.05" stroke-width="2"/><line x1="0" y1="230" x2="750" y2="230" stroke="#000000" stroke-opacity="0.05" stroke-width="2"/><line x1="0" y1="286" x2="750" y2="286" stroke="#000000" stroke-opacity="0.05" stroke-width="2"/><line x1="0" y1="341" x2="750" y2="341" stroke="#000000" stroke-opacity="0.05" stroke-width="2"/><line x1="0" y1="397" x2="750" y2="397" stroke="#000000" stroke-opacity="0.05" stroke-width="2"/><line x1="0" y1="452" x2="750" y2="452" stroke="#000000" stroke-opacity="0.05" stroke-width="2"/><line x1="0" y1="508" x2="750" y2="508" stroke="#000000" stroke-opacity="0.05" stroke-width="2"/><line x1="0" y1="564" x2="750" y2="564" stroke="#000000" stroke-opacity="0.05" stroke-width="2"/><line x1="0" y1="619" x2="750" y2="619" stroke="#000000" stroke-opacity="0.05" stroke-width="2"/><line x1="0" y1="675" x2="750" y2="675" stroke="#000000" stroke-opacity="0.05" stroke-width="2"/><line x1="0" y1="730" x2="750" y2="730" stroke="#000000" stroke-opacity="0.05" stroke-width="2"/><line x1="0" y1="786" x2="750" y2="786" stroke="#000000" stroke-opacity="0.05" stroke-width="2"/><line x1="0" y1="841" x2="750" y2="841" stroke="#000000" stroke-opacity="0.05" stroke-width="2"/><line x1="0" y1="897" x2="750" y2="897" stroke="#000000" stroke-opacity="0.05" stroke-width="2"/><line x1="0" y1="952" x2="750" y2="952" stroke="#000000" stroke-opacity="0.05" stroke-width="2"/>
  <g transform="translate(375,490)">
        <circle r="125" fill="#d8d8d8"/>
        <circle cy="-32.142857142857146" r="50" fill="#111111"/>
        <path d="M -85.71428571428572 50 Q 0 14.285714285714286 85.71428571428572 50 L 100 125 L -100 125 Z" fill="#111111"/>
      </g>
  <text x="375" y="936" text-anchor="middle" font-family="Georgia, serif" font-size="27" fill="#000000" letter-spacing="4">FOTO-02</text>
  <text x="375" y="962" text-anchor="middle" font-family="Helvetica, Arial, sans-serif" font-size="16" fill="#333333">about-portrait.jpg</text>
</svg>