<?xml version="1.0" encoding="UTF-8"?>
<svg xmlns="http://www.w3.org/2000/svg" width="1600" height="900" viewBox="0 0 1600 900" role="img" aria-label="FOTO-05">
  <rect width="1600" height="900" fill="#f2f2f2"/>
  <rect x="24" y="24" width="1552" height="852" fill="none" stroke="#000000" stroke-opacity="0.25" stroke-width="1"/>
  <line x1="0" y1="8" x2="1600" y2="8" stroke="#000000" stroke-opacity="0.05" stroke-width="2"/><line x1="0" y1="58" x2="1600" y2="58" stroke="#000000" stroke-opacity="0.05" stroke-width="2"/><line x1="0" y1="108" x2="1600" y2="108" stroke="#000000" stroke-opacity="0.05" stroke-width="2"/><line x1="0" y1="158" x2="1600" y2="158" stroke="#000000" stroke-opacity="0.05" stroke-width="2"/><line x1="0" y1="208" x2="1600" y2="208" stroke="#000000" stroke-opacity="0.05" stroke-width="2"/><line x1="0" y1="258" x2="1600" y2="258" stroke="#000000" stroke-opacity="0.05" stroke-width="2"/><line x1="0" y1="308" x2="1600" y2="308" stroke="#000000" stroke-opacity="0.05" stroke-width="2"/><line x1="0" y1="358" x2="1600" y2="358" stroke="#000000" stroke-opacity="0.05" stroke-width="2"/><line x1="0" y1="408" x2="1600" y2="408" stroke="#000000" stroke-opacity="0.05" stroke-width="2"/><line x1="0" y1="458" x2="1600" y2="458" stroke="#000000" stroke-opacity="0.05" stroke-width="2"/><line x1="0" y1="508" x2="1600" y2="508" stroke="#000000" stroke-opacity="0.05" stroke-width="2"/><line x1="0" y1="558" x2="1600" y2="558" stroke="#000000" stroke-opacity="0.05" stroke-width="2"/><line x1="0" y1="608" x2="1600" y2="608" stroke="#000000" stroke-opacity="0.05" stroke-width="2"/><line x1="0" y1="658" x2="1600" y2="658" stroke="#000000" stroke-opacity="0.05" stroke-width="2"/><line x1="0" y1="708" x2="1600" y2="708" stroke="#000000" stroke-opacity="0.05" stroke-width="2"/><line x1="0" y1="758" x2="1600" y2="758" stroke="#000000" stroke-opacity="0.05" stroke-width="2"/><line x1="0" y1="808" x2="1600" y2="808" stroke="#000000" stroke-opacity="0.05" stroke-width="2"/><line x1="0" y1="858" x2="1600" y2="858" stroke="#000000" stroke-opacity="0.05" stroke-width="2"/>
  <g transform="translate(328.5714285714286,354.2857142857143) scale(2.142857142857143)">
        <rect x="0" y="0" width="80" height="90" fill="#111111"/>
        <rect x="90" y="-40" width="260" height="130" fill="#000000"/>
        <rect x="360" y="0" width="80" height="90" fill="#111111"/>
        <rect x="70" y="90" width="300" height="18" fill="#d8d8d8"/>
      </g>
  <text x="800" y="836" text-anchor="middle" font-family="Georgia, serif" font-size="57" fill="#000000" letter-spacing="4">FOTO-05</text>
  <text x="800" y="862" text-anchor="middle" font-family="Helvetica, Arial, sans-serif" font-size="33" fill="#333333">design-headboard.jpg</text>
</svg>